<svg width="869" height="1540" viewBox="0 0 869 1540" fill="none" xmlns="http://www.w3.org/2000/svg">
<g clip-path="url(#clip0)">
<path d="M127.92 1420.05C198.093 1420.05 254.98 1363.16 254.98 1292.99C254.98 1222.82 198.093 1165.93 127.92 1165.93C57.7467 1165.93 0.859985 1222.82 0.859985 1292.99C0.859985 1363.16 57.7467 1420.05 127.92 1420.05Z" fill="url(#paint0_linear)"/>
<path d="M932.45 1245.18L253.87 1028.54L270.78 1296.45L944.17 1511.56L932.45 1245.18Z" fill="url(#paint1_linear)"/>
<path d="M932.45 1245.18L253.87 1028.54L270.78 1296.45L944.17 1511.56L932.45 1245.18Z" fill="url(#paint2_linear)"/>
<path d="M932.45 1507.73L253.87 1291.1L270.78 1559L944.17 1774.12L932.45 1507.73Z" fill="url(#paint3_linear)"/>
<path d="M932.45 1507.73L253.87 1291.1L270.78 1559L944.17 1774.12L932.45 1507.73Z" fill="url(#paint4_linear)"/>
<path d="M288.53 1611.51L718.4 454.42L449.99 458.69L21.89 1610.67L288.53 1611.51Z" fill="url(#paint5_linear)"/>
<path d="M288.53 1611.51L724.15 439.09L455.74 443.36L21.89 1610.67L288.53 1611.51Z" fill="url(#paint6_linear)"/>
<path d="M528.46 967.18C686.159 967.18 814 839.339 814 681.64C814 523.941 686.159 396.1 528.46 396.1C370.761 396.1 242.92 523.941 242.92 681.64C242.92 839.339 370.761 967.18 528.46 967.18Z" fill="url(#paint7_linear)"/>
<path d="M528.46 967.03C686.077 967.03 813.85 839.257 813.85 681.64C813.85 524.024 686.077 396.25 528.46 396.25C370.843 396.25 243.07 524.024 243.07 681.64C243.07 839.257 370.843 967.03 528.46 967.03Z" fill="url(#paint8_linear)"/>
<path d="M452.44 1432.19C522.613 1432.19 579.5 1375.3 579.5 1305.13C579.5 1234.96 522.613 1178.07 452.44 1178.07C382.267 1178.07 325.38 1234.96 325.38 1305.13C325.38 1375.3 382.267 1432.19 452.44 1432.19Z" fill="url(#paint9_linear)"/>
<path d="M829.61 1615.02L1077.97 947.4L809.57 951.67L562.97 1614.18L829.61 1615.02Z" fill="url(#paint10_linear)"/>
<path d="M677.64 750.64L1017.24 608.96L676.36 482.33L677.64 750.64Z" fill="url(#paint11_linear)"/>
<path d="M902.21 1289L561.89 1149.05L713.4 1479.62L902.21 1289Z" fill="url(#paint12_linear)"/>
<path d="M1045.12 1603.94L748.67 956.24L561.89 1149.05L855.99 1791.89L1045.12 1603.94Z" fill="url(#paint13_linear)"/>
<path d="M1241.8 954.9L574.18 706.53L578.45 974.94L1240.96 1221.54L1241.8 954.9Z" fill="url(#paint14_linear)"/>
<path d="M682.36 1101.41L930.73 433.79L662.32 438.06L415.72 1100.57L682.36 1101.41Z" fill="url(#paint15_linear)"/>
<path d="M751.64 894.62L1150.01 -33L881.6 -28.73L485 893.78L751.64 894.62Z" fill="url(#paint16_linear)"/>
<path d="M820.46 227L666.21 651.45L521 478.55L820.46 227Z" fill="url(#paint17_linear)"/>
<path d="M589.79 1227.66C712.828 1227.66 812.57 1127.92 812.57 1004.88C812.57 881.842 712.828 782.1 589.79 782.1C466.752 782.1 367.01 881.842 367.01 1004.88C367.01 1127.92 466.752 1227.66 589.79 1227.66Z" fill="url(#paint18_linear)"/>
<path d="M589.79 1131.94C659.963 1131.94 716.85 1075.05 716.85 1004.88C716.85 934.707 659.963 877.82 589.79 877.82C519.617 877.82 462.73 934.707 462.73 1004.88C462.73 1075.05 519.617 1131.94 589.79 1131.94Z" fill="url(#paint19_linear)"/>
<path d="M870.23 910.91C940.403 910.91 997.29 854.023 997.29 783.85C997.29 713.677 940.403 656.79 870.23 656.79C800.057 656.79 743.17 713.677 743.17 783.85C743.17 854.023 800.057 910.91 870.23 910.91Z" fill="url(#paint20_linear)"/>
<path d="M325.3 930.08C395.473 930.08 452.36 873.193 452.36 803.02C452.36 732.847 395.473 675.96 325.3 675.96C255.127 675.96 198.24 732.847 198.24 803.02C198.24 873.193 255.127 930.08 325.3 930.08Z" fill="url(#paint21_linear)"/>
<path d="M484.68 867.55L194.41 1213.53L117.19 1001.35L484.68 867.55Z" fill="url(#paint22_linear)"/>
</g>
<defs>
<linearGradient id="paint0_linear" x1="223.536" y1="1208.81" x2="32.3034" y2="1376.18" gradientUnits="userSpaceOnUse">
<stop stop-color="#1717B0"/>
<stop offset="1" stop-color="#000B4A"/>
</linearGradient>
<linearGradient id="paint1_linear" x1="253.869" y1="1270.05" x2="944.171" y2="1270.05" gradientUnits="userSpaceOnUse">
<stop stop-color="#1717B0"/>
<stop offset="1" stop-color="#000B4A"/>
</linearGradient>
<linearGradient id="paint2_linear" x1="631.225" y1="1212.55" x2="511.153" y2="1427.83" gradientUnits="userSpaceOnUse">
<stop stop-color="#1717B0"/>
<stop offset="1" stop-color="#000B4A"/>
</linearGradient>
<linearGradient id="paint3_linear" x1="253.869" y1="1532.61" x2="944.171" y2="1532.61" gradientUnits="userSpaceOnUse">
<stop stop-color="#1717B0"/>
<stop offset="1" stop-color="#000B4A"/>
</linearGradient>
<linearGradient id="paint4_linear" x1="631.221" y1="1475.1" x2="511.15" y2="1690.38" gradientUnits="userSpaceOnUse">
<stop stop-color="#1717B0"/>
<stop offset="1" stop-color="#000B4A"/>
</linearGradient>
<linearGradient id="paint5_linear" x1="21.8892" y1="1032.96" x2="718.4" y2="1032.96" gradientUnits="userSpaceOnUse">
<stop stop-color="#1717B0"/>
<stop offset="1" stop-color="#000B4A"/>
</linearGradient>
<linearGradient id="paint6_linear" x1="290.712" y1="711.507" x2="516.411" y2="1570.82" gradientUnits="userSpaceOnUse">
<stop stop-color="#1717B0"/>
<stop offset="1" stop-color="#000B4A"/>
</linearGradient>
<linearGradient id="paint7_linear" x1="501.243" y1="397.641" x2="555.956" y2="966.135" gradientUnits="userSpaceOnUse">
<stop stop-color="#1717B0"/>
<stop offset="1" stop-color="#000B4A"/>
</linearGradient>
<linearGradient id="paint8_linear" x1="790.526" y1="794.815" x2="266.085" y2="569.19" gradientUnits="userSpaceOnUse">
<stop stop-color="#1717B0"/>
<stop offset="1" stop-color="#000B4A"/>
</linearGradient>
<linearGradient id="paint9_linear" x1="444.978" y1="1431.73" x2="460.327" y2="1178.05" gradientUnits="userSpaceOnUse">
<stop stop-color="#1717B0"/>
<stop offset="1" stop-color="#000B4A"/>
</linearGradient>
<linearGradient id="paint10_linear" x1="562.967" y1="1281.21" x2="1077.97" y2="1281.21" gradientUnits="userSpaceOnUse">
<stop stop-color="#1717B0"/>
<stop offset="1" stop-color="#000B4A"/>
</linearGradient>
<linearGradient id="paint11_linear" x1="676.362" y1="616.485" x2="1017.24" y2="616.485" gradientUnits="userSpaceOnUse">
<stop stop-color="#1717B0"/>
<stop offset="1" stop-color="#000B4A"/>
</linearGradient>
<linearGradient id="paint12_linear" x1="561.893" y1="1314.34" x2="902.212" y2="1314.34" gradientUnits="userSpaceOnUse">
<stop stop-color="#1717B0"/>
<stop offset="1" stop-color="#000B4A"/>
</linearGradient>
<linearGradient id="paint13_linear" x1="886.442" y1="1458.25" x2="569.431" y2="1141.24" gradientUnits="userSpaceOnUse">
<stop stop-color="#1717B0"/>
<stop offset="1" stop-color="#000B4A"/>
</linearGradient>
<linearGradient id="paint14_linear" x1="995.305" y1="828.687" x2="861.226" y2="1035.53" gradientUnits="userSpaceOnUse">
<stop stop-color="#1717B0"/>
<stop offset="1" stop-color="#000B4A"/>
</linearGradient>
<linearGradient id="paint15_linear" x1="415.72" y1="767.602" x2="930.727" y2="767.602" gradientUnits="userSpaceOnUse">
<stop stop-color="#1717B0"/>
<stop offset="1" stop-color="#000B4A"/>
</linearGradient>
<linearGradient id="paint16_linear" x1="798.399" y1="595.115" x2="589.015" y2="465.039" gradientUnits="userSpaceOnUse">
<stop stop-color="#1717B0"/>
<stop offset="1" stop-color="#000B4A"/>
</linearGradient>
<linearGradient id="paint17_linear" x1="520.998" y1="439.23" x2="820.457" y2="439.23" gradientUnits="userSpaceOnUse">
<stop stop-color="#1717B0"/>
<stop offset="1" stop-color="#000B4A"/>
</linearGradient>
<linearGradient id="paint18_linear" x1="574.277" y1="1227.32" x2="605.82" y2="782.795" gradientUnits="userSpaceOnUse">
<stop stop-color="#1717B0"/>
<stop offset="1" stop-color="#000B4A"/>
</linearGradient>
<linearGradient id="paint19_linear" x1="524.221" y1="896.242" x2="655.683" y2="1113.73" gradientUnits="userSpaceOnUse">
<stop stop-color="#1717B0"/>
<stop offset="1" stop-color="#000B4A"/>
</linearGradient>
<linearGradient id="paint20_linear" x1="903.117" y1="661.09" x2="837.805" y2="906.682" gradientUnits="userSpaceOnUse">
<stop stop-color="#1717B0"/>
<stop offset="1" stop-color="#000B4A"/>
</linearGradient>
<linearGradient id="paint21_linear" x1="366.636" y1="922.832" x2="283.866" y2="682.551" gradientUnits="userSpaceOnUse">
<stop stop-color="#1717B0"/>
<stop offset="1" stop-color="#000B4A"/>
</linearGradient>
<linearGradient id="paint22_linear" x1="160.543" y1="847.646" x2="410.52" y2="1117.02" gradientUnits="userSpaceOnUse">
<stop stop-color="#1717B0"/>
<stop offset="1" stop-color="#000B4A"/>
</linearGradient>
<clipPath id="clip0">
<rect width="869" height="1540" fill="white"/>
</clipPath>
</defs>
</svg>
