<svg width="30" height="30" viewBox="0 0 30 30" fill="none" xmlns="http://www.w3.org/2000/svg">
<path d="M27.7014 7.07003C26.7471 7.49215 25.7351 7.76937 24.6989 7.89253C25.7911 7.23932 26.6085 6.2113 26.9989 5.00003C25.9739 5.61003 24.8502 6.03753 23.6789 6.26878C22.8922 5.427 21.8494 4.86873 20.7126 4.68076C19.5758 4.49279 18.4088 4.68564 17.393 5.22935C16.3771 5.77305 15.5694 6.63714 15.0953 7.68727C14.6212 8.73741 14.5073 9.91476 14.7714 11.0363C12.6928 10.9321 10.6593 10.3919 8.80301 9.45086C6.94671 8.50979 5.30907 7.18884 3.99641 5.57378C3.53177 6.37184 3.2876 7.27906 3.28891 8.20253C3.28891 10.015 4.21141 11.6163 5.61391 12.5538C4.78392 12.5277 3.9722 12.3035 3.24641 11.9V11.965C3.24666 13.1722 3.66437 14.3421 4.42872 15.2764C5.19306 16.2107 6.25701 16.8519 7.44016 17.0913C6.66967 17.3001 5.86179 17.3309 5.07766 17.1813C5.41124 18.2203 6.06141 19.129 6.93715 19.7802C7.81288 20.4313 8.87032 20.7923 9.96141 20.8125C8.87701 21.6642 7.63538 22.2938 6.30751 22.6652C4.97964 23.0367 3.59157 23.1428 2.22266 22.9775C4.61228 24.5143 7.39403 25.3302 10.2352 25.3275C19.8514 25.3275 25.1102 17.3613 25.1102 10.4525C25.1102 10.2275 25.1039 10 25.0939 9.77753C26.1175 9.03774 27.0009 8.1213 27.7027 7.07128L27.7014 7.07003Z" fill="black"/>
</svg>
